# xmcd
#
# Track frame offsets:
#	182
#	13417
#	26965
#	37620
#	51455
#	65262
#	76515
#	90862
#	103560
#	116480
#	129240
#	141902
#	155765
#	168980
#
# Disc length: 2399 seconds
#
# Revision: 1
# Processed by: cddbd v1.4PL0 Copyright (c) Steve Scherf et al.
# Submitted via: audiograbber 1.80
#
DISCID=aa095d0e
DTITLE=Willie Love - Lonesome World Blues
DYEAR=1900
DGENRE=
TTITLE0=Take It Easy Baby
TTITLE1=Little Car Blues
TTITLE2=Everybody's Fishing
TTITLE3=My Own Boogie
TTITLE4=Falling Rain
TTITLE5=Vanity Dresser Boogie
TTITLE6=74 Blues
TTITLE7=Nelson Street Blues
TTITLE8=Shady Lane Blues
TTITLE9=V8 Ford
TTITLE10=Willie Mae
TTITLE11=Way Back
TTITLE12=Worried Blues
TTITLE13=Lonesome World Blues
EXTD=
EXTT0=
EXTT1=
EXTT2=
EXTT3=
EXTT4=
EXTT5=
EXTT6=
EXTT7=
EXTT8=
EXTT9=
EXTT10=
EXTT11=
EXTT12=
EXTT13=
PLAYORDER=
